:FULLY-SPECIFIED
:FORCE-ALL-JOINTS-BE-3DOF
:DEGREES
918
root -0.210839 14.1234 -36.3288 12.4214 -26.4893 -16.4148
lfemur -64.6482 31.2833 -0.59886
ltibia 69.2879 -0 0
lfoot -6.95903 -9.81133 -0.00620637
ltoes -11.0406 0 0
rfemur 6.25061 -8.41199 13.6821
rtibia 38.1001 -0 0
rfoot -22.1122 -29.4253 0.00629766
rtoes -27.2665 0 0
lowerback 11.4536 -0.0449478 6.76062
upperback -1.63392 1.30104 5.44468
thorax -8.20003 0.43842 1.77163
lowerneck -3.72478 7.75348 2.46871
upperneck 3.7211 10.2465 -0.742888
head 1.96528 5.12626 -0.341759
lclavicle -1.22253e-14 -6.55989e-15 0
lhumerus 10.6831 14.4389 70.5348
lradius 11.7129 -0 0
lwrist -47.1415 0 0
lhand -28.4101 28.1746 -0.0575623
lfingers 7.12502 -0 0
lthumb -1.78182 58.1367 -0.0549188
rclavicle -1.22253e-14 -6.55989e-15 0
rhumerus -76.8974 21.2548 -96.4286
rradius 110.037 -0 0
rwrist -67.9508 0 0
rhand -10.8215 -24.6171 -0.000142462
rfingers 7.12502 -0 0
rthumb 15.1925 -54.0394 -0.000137424
919
root -0.202179 14.1141 -36.3216 12.3777 -26.5605 -16.4265
lfemur -64.5626 31.3072 -0.534413
ltibia 69.3434 -0 0
lfoot -6.9604 -9.84035 -0.00433525
ltoes -10.7754 0 0
rfemur 6.23768 -8.37421 13.6656
rtibia 38.2279 -0 0
rfoot -22.1482 -29.4069 0.00575419
rtoes -27.225 0 0
lowerback 11.4432 -0.0407911 6.74922
upperback -1.61472 1.30375 5.47439
thorax -8.17439 0.441594 1.80884
lowerneck -3.74833 7.75807 2.50106
upperneck 3.79857 10.2516 -0.764249
head 1.99835 5.12873 -0.350198
lclavicle -1.22253e-14 -6.55989e-15 0
lhumerus 10.4631 13.5836 70.6957
lradius 11.9643 -0 0
lwrist -46.1046 0 0
lhand -28.17 28.1149 -0.0553824
lfingers 7.12502 -0 0
lthumb -1.5499 58.0786 -0.0528041
rclavicle -1.22253e-14 -6.55989e-15 0
rhumerus -76.881 21.269 -96.387
rradius 110.008 -0 0
rwrist -67.9312 0 0
rhand -10.807 -24.6259 -0.000254761
rfingers 7.12502 -0 0
rthumb 15.2065 -54.0471 -0.000243244
920
root -0.193519 14.1048 -36.3145 12.335 -26.6284 -16.4478
lfemur -64.5088 31.35 -0.486499
ltibia 69.444 -0 0
lfoot -6.97016 -9.88181 -0.00256061
ltoes -10.4548 0 0
rfemur 6.23781 -8.34566 13.6367
rtibia 38.3497 -0 0
rfoot -22.1894 -29.3735 0.00505624
rtoes -27.2141 0 0
lowerback 11.4269 -0.0415516 6.74578
upperback -1.59403 1.30105 5.51844
thorax -8.14401 0.442169 1.85799
lowerneck -3.77191 7.76449 2.54007
upperneck 3.89008 10.2592 -0.79116
head 2.03696 5.13239 -0.360965
lclavicle -1.22253e-14 -6.55989e-15 0
lhumerus 10.2695 12.2881 70.919
lradius 12.3951 -0 0
lwrist -44.6963 0 0
lhand -27.8911 28.0767 -0.0513669
lfingers 7.12502 -0 0
lthumb -1.28063 58.0421 -0.0489361
rclavicle -1.22253e-14 -6.55989e-15 0
rhumerus -76.8649 21.2834 -96.3401
rradius 109.981 -0 0
rwrist -67.9044 0 0
rhand -10.7944 -24.637 -0.00034355
rfingers 7.12502 -0 0
rthumb 15.2185 -54.0573 -0.000326544
921
root -0.184859 14.0955 -36.3074 12.2939 -26.6889 -16.4814
lfemur -64.4983 31.4166 -0.461387
ltibia 69.6004 -0 0
lfoot -6.99147 -9.94014 -0.000996441
ltoes -10.0719 0 0
rfemur 6.25588 -8.32914 13.5939
rtibia 38.4604 -0 0
rfoot -22.235 -29.3238 0.0042209
rtoes -27.2411 0 0
lowerback 11.4032 -0.0486868 6.7529
upperback -1.57175 1.29139 5.57986
thorax -8.10809 0.439333 1.92113
lowerneck -3.79506 7.773 2.58714
upperneck 3.99686 10.2695 -0.824596
head 2.08159 5.13741 -0.374561
lclavicle -1.22253e-14 -6.55989e-15 0
lhumerus 10.1054 10.499 71.2177
lradius 13.0222 -0 0
lwrist -42.8758 0 0
lhand -27.5655 28.0612 -0.0453342
lfingers 7.12502 -0 0
lthumb -0.966154 58.0285 -0.043147
rclavicle -1.22253e-14 -6.55989e-15 0
rhumerus -76.8501 21.2967 -96.2869
rradius 109.955 -0 0
rwrist -67.8688 0 0
rhand -10.7836 -24.6516 -0.000396725
rfingers 7.12502 -0 0
rthumb 15.229 -54.0711 -0.00037603
922
root -0.176198 14.0862 -36.3003 12.2551 -26.7376 -16.5301
lfemur -64.5426 31.512 -0.465449
ltibia 69.8231 -0 0
lfoot -7.02749 -10.0198 0.000224924
ltoes -9.6194 0 0
rfemur 6.29682 -8.32745 13.536
rtibia 38.5549 -0 0
rfoot -22.2846 -29.2568 0.00326994
rtoes -27.3132 0 0
lowerback 11.3707 -0.0636481 6.77319
upperback -1.54782 1.27321 5.66162
thorax -8.06582 0.432268 2.00034
lowerneck -3.8173 7.78384 2.64368
upperneck 4.12012 10.2829 -0.86553
head 2.13271 5.14395 -0.391491
lclavicle -1.22253e-14 -6.55989e-15 0
lhumerus 9.97111 8.16294 71.6037
lradius 13.8621 -0 0
lwrist -40.602 0 0
lhand -27.185 28.0698 -0.0371635
lfingers 7.12502 -0 0
lthumb -0.598624 58.0392 -0.0353294
rclavicle -1.22253e-14 -6.55989e-15 0
rhumerus -76.8372 21.3076 -96.2266
rradius 109.931 -0 0
rwrist -67.8229 0 0
rhand -10.774 -24.6708 -0.000401858
rfingers 7.12502 -0 0
rthumb 15.2382 -54.0896 -0.000380121
923
root -0.167538 14.0768 -36.2931 12.2192 -26.7703 -16.5966
lfemur -64.6534 31.6411 -0.505234
ltibia 70.1227 -0 0
lfoot -7.08139 -10.1251 0.000942487
ltoes -9.09039 0 0
rfemur 6.36555 -8.34336 13.4616
rtibia 38.6281 -0 0
rfoot -22.3373 -29.1712 0.00222934
rtoes -27.4378 0 0
lowerback 11.3283 -0.0878779 6.80924
upperback -1.52217 1.24493 5.76674
thorax -8.01639 0.420146 2.09769
lowerneck -3.83817 7.79725 2.71107
upperneck 4.26105 10.2997 -0.914933
head 2.19081 5.15216 -0.412257
lclavicle -1.22253e-14 -6.55989e-15 0
lhumerus 9.86242 5.22639 72.088
lradius 14.9319 -0 0
lwrist -37.8341 0 0
lhand -26.7413 28.1035 -0.0268168
lfingers 7.12502 -0 0
lthumb -0.170185 58.0753 -0.0254575
rclavicle -1.22253e-14 -6.55989e-15 0
rhumerus -76.8272 21.315 -96.158
rradius 109.909 -0 0
rwrist -67.765 0 0
rhand -10.7654 -24.6958 -0.000346225
rfingers 7.12502 -0 0
rthumb 15.2465 -54.114 -0.000326976
924
root -0.158878 14.0675 -36.286 12.187 -26.7827 -16.6836
lfemur -64.8427 31.8085 -0.587558
ltibia 70.5099 -0 0
lfoot -7.15631 -10.2605 0.000953844
ltoes -8.47774 0 0
rfemur 6.46704 -8.37958 13.3692
rtibia 38.6747 -0 0
rfoot -22.3926 -29.0657 0.00112861
rtoes -27.6221 0 0
lowerback 11.2744 -0.122805 6.86368
upperback -1.49475 1.20498 5.89821
thorax -7.95902 0.402125 2.21522
lowerneck -3.85719 7.81347 2.79073
upperneck 4.42086 10.3203 -0.973766
head 2.25637 5.16222 -0.437359
lclavicle -1.22253e-14 -6.55989e-15 0
lhumerus 9.77044 1.63574 72.6818
lradius 16.2481 -0 0
lwrist -34.531 0 0
lhand -26.2265 28.1635 -0.0143622
lfingers 7.12502 -0 0
lthumb 0.327022 58.1381 -0.013611
rclavicle -1.22253e-14 -6.55989e-15 0
rhumerus -76.8207 21.3175 -96.0805
rradius 109.888 -0 0
rwrist -67.6938 0 0
rhand -10.7575 -24.7278 -0.000216771
rfingers 7.12502 -0 0
rthumb 15.2541 -54.1453 -0.000204452
925
root -0.150218 14.0582 -36.2789 372.159 -26.7707 343.206
lfemur -65.1227 32.0189 -0.71961
ltibia 70.9954 0 0
lfoot -7.25541 -10.4304 0
ltoes -7.77438 0 0
rfemur 6.60628 -8.4388 13.2575
rtibia 38.6896 0 0
rfoot -22.4499 -28.9393 0
rtoes -27.8734 0 0
lowerback 11.2078 -0.169842 6.93913
upperback -1.46556 1.1518 6.05903
thorax -7.89293 0.377348 2.35501
lowerneck -3.87389 7.83276 2.88405
upperneck 4.60076 10.3451 -1.04299
head 2.32985 5.1743 -0.467298
lclavicle -1.22253e-14 -6.55989e-15 0
lhumerus 9.68028 -2.6626 73.398
lradius 17.8277 0 0
lwrist -30.6517 0 0
lhand -25.6323 28.2512 0
lfingers 7.12502 0 0
lthumb 0.90086 58.229 0
rclavicle -1.22253e-14 -6.55989e-15 0
rhumerus -76.8186 21.3138 -95.993
rradius 109.868 0 0
rwrist -67.6076 0 0
rhand -10.7499 -24.7678 0
rfingers 7.12502 0 0
rthumb 15.2614 -54.1848 0
926
root -0.140495 14.0506 -36.267 12.1357 -26.7481 -16.906
lfemur -65.4252 32.2327 -0.867367
ltibia 71.487 -0 0
lfoot -7.35268 -10.6045 -0.00153525
ltoes -7.07141 0 0
rfemur 6.75109 -8.5061 13.1445
rtibia 38.6898 -0 0
rfoot -22.507 -28.8095 -0.00103631
rtoes -28.1425 0 0
lowerback 11.139 -0.217812 7.02071
upperback -1.43808 1.09799 6.22065
thorax -7.82739 0.351873 2.49238
lowerneck -3.88722 7.85139 2.97565
upperneck 4.77659 10.3693 -1.11152
head 2.40124 5.18604 -0.497056
lclavicle -3.42904e-15 -4.45278e-14 0
lhumerus 9.50342 -7.00172 74.1424
lradius 19.3569 -0 0
lwrist -26.7494 0 0
lhand -25.0327 28.3502 0.0141356
lfingers 7.12502 -0 0
lthumb 1.47995 58.331 0.0133572
rclavicle -3.42904e-15 -4.45278e-14 0
rhumerus -76.8187 21.3085 -95.9096
rradius 109.848 -0 0
rwrist -67.5303 0 0
rhand -10.7488 -24.8036 0.000261788
rfingers 7.12502 -0 0
rthumb 15.2625 -54.2205 0.000247597
927
root -0.130772 14.043 -36.255 12.1172 -26.7313 -16.9975
lfemur -65.6765 32.4101 -0.992784
ltibia 71.8915 -0 0
lfoot -7.42208 -10.7508 -0.0029504
ltoes -6.45971 0 0
rfemur 6.86769 -8.56547 13.0481
rtibia 38.6697 -0 0
rfoot -22.5622 -28.6936 -0.00190303
rtoes -28.3778 0 0
lowerback 11.0792 -0.255405 7.09224
upperback -1.41549 1.05632 6.3544
thorax -7.77167 0.331958 2.60323
lowerneck -3.89674 7.86583 3.05026
upperneck 4.92517 10.3884 -1.16841
head 2.46097 5.19518 -0.52161
lclavicle -3.42904e-15 -4.45278e-14 0
lhumerus 9.18916 -10.7231 74.8227
lradius 20.5427 -0 0
lwrist -23.3688 0 0
lhand -24.5046 28.4447 0.0262892
lfingers 7.12502 -0 0
lthumb 1.98996 58.4276 0.0248308
rclavicle -3.42904e-15 -4.45278e-14 0
rhumerus -76.8184 21.3067 -95.8437
rradius 109.826 -0 0
rwrist -67.4841 0 0
rhand -10.7596 -24.8232 0.000509013
rfingers 7.12502 -0 0
rthumb 15.252 -54.241 0.000483096
928
root -0.121048 14.0354 -36.2431 12.1033 -26.7202 -17.0704
lfemur -65.8814 32.5546 -1.09753
ltibia 72.2179 -0 0
lfoot -7.46676 -10.8713 -0.00412679
ltoes -5.93193 0 0
rfemur 6.95873 -8.61783 12.9663
rtibia 38.678 -0 0
rfoot -22.6157 -28.59 -0.00262703
rtoes -28.5827 0 0
lowerback 11.0277 -0.283807 7.15445
upperback -1.39734 1.02541 6.4631
thorax -7.72495 0.317017 2.69042
lowerneck -3.90284 7.87659 3.10945
upperneck 5.04916 10.4028 -1.21479
head 2.51018 5.20203 -0.541445
lclavicle -3.42904e-15 -4.45278e-14 0
lhumerus 8.76992 -13.8937 75.4501
lradius 21.4333 -0 0
lwrist -20.4564 0 0
lhand -24.0445 28.5368 0.0366651
lfingers 7.12502 -0 0
lthumb 2.43431 58.521 0.0346285
rclavicle -3.42904e-15 -4.45278e-14 0
rhumerus -76.8175 21.3082 -95.7937
rradius 109.804 -0 0
rwrist -67.4647 0 0
rhand -10.7809 -24.8288 0.000737427
rfingers 7.12502 -0 0
rthumb 15.2315 -54.2481 0.00070189
929
root -0.111325 14.0278 -36.2311 12.0938 -26.7143 -17.1267
lfemur -66.0445 32.6698 -1.18349
ltibia 72.4748 -0 0
lfoot -7.48986 -10.9679 -0.00499785
ltoes -5.48071 0 0
rfemur 7.02689 -8.66409 12.8969
rtibia 38.6883 -0 0
rfoot -22.6674 -28.4968 -0.00323057
rtoes -28.7606 0 0
lowerback 10.9837 -0.304197 7.20805
upperback -1.38318 1.00389 6.54955
thorax -7.68644 0.306443 2.7568
lowerneck -3.90592 7.88419 3.15481
upperneck 5.15122 10.4133 -1.25179
head 2.55001 5.20693 -0.557047
lclavicle -3.42904e-15 -4.45278e-14 0
lhumerus 8.2746 -16.5812 76.0302
lradius 22.0767 -0 0
lwrist -17.9587 0 0
lhand -23.6488 28.6283 0.0454126
lfingers 7.12502 -0 0
lthumb 2.81641 58.6132 0.042901
rclavicle -3.42904e-15 -4.45278e-14 0
rhumerus -76.8161 21.3129 -95.7578
rradius 109.782 -0 0
rwrist -67.4681 0 0
rhand -10.8113 -24.8221 0.000950153
rfingers 7.12502 -0 0
rthumb 15.2022 -54.2436 0.000906182
